<svg width="19" height="18" viewBox="0 0 19 18" fill="none" xmlns="http://www.w3.org/2000/svg">
<path d="M17.8107 9.18165C17.8107 4.14915 13.9057 0.72998 9.56071 0.72998C5.26154 0.72998 1.31071 4.07581 1.31071 9.23665C0.76071 9.54831 0.394043 10.135 0.394043 10.8133V12.6466C0.394043 13.655 1.21904 14.48 2.22738 14.48H3.14404V8.88831C3.14404 5.34081 6.01321 2.47165 9.56071 2.47165C13.1082 2.47165 15.9774 5.34081 15.9774 8.88831V15.3966H8.64404V17.23H15.9774C16.9857 17.23 17.8107 16.405 17.8107 15.3966V14.2783C18.3515 13.9941 18.7274 13.435 18.7274 12.775V10.6666C18.7274 10.025 18.3515 9.46581 17.8107 9.18165Z" fill="#07A098"/>
</svg>
