<svg width="21" height="21" viewBox="0 0 21 21" fill="none" xmlns="http://www.w3.org/2000/svg">
<path d="M17.9904 11.5928C18.0304 11.2728 18.0604 10.9528 18.0604 10.6128C18.0604 10.2728 18.0304 9.95279 17.9904 9.63279L20.1004 7.98279C20.2904 7.83279 20.3404 7.56279 20.2204 7.34279L18.2204 3.88279C18.1304 3.72279 17.9604 3.63279 17.7804 3.63279C17.7204 3.63279 17.6604 3.64279 17.6104 3.66279L15.1204 4.66279C14.6004 4.26279 14.0404 3.93279 13.4304 3.68279L13.0504 1.03279C13.0204 0.792793 12.8104 0.612793 12.5604 0.612793H8.56039C8.31039 0.612793 8.10039 0.792793 8.07039 1.03279L7.69039 3.68279C7.08039 3.93279 6.52039 4.27279 6.00039 4.66279L3.51039 3.66279C3.45039 3.64279 3.39039 3.63279 3.33039 3.63279C3.16039 3.63279 2.99039 3.72279 2.90039 3.88279L0.900386 7.34279C0.770386 7.56279 0.830386 7.83279 1.02039 7.98279L3.13039 9.63279C3.09039 9.95279 3.06039 10.2828 3.06039 10.6128C3.06039 10.9428 3.09039 11.2728 3.13039 11.5928L1.02039 13.2428C0.830386 13.3928 0.780386 13.6628 0.900386 13.8828L2.90039 17.3428C2.99039 17.5028 3.16039 17.5928 3.34039 17.5928C3.40039 17.5928 3.46039 17.5828 3.51039 17.5628L6.00039 16.5628C6.52039 16.9628 7.08039 17.2928 7.69039 17.5428L8.07039 20.1928C8.10039 20.4328 8.31039 20.6128 8.56039 20.6128H12.5604C12.8104 20.6128 13.0204 20.4328 13.0504 20.1928L13.4304 17.5428C14.0404 17.2928 14.6004 16.9528 15.1204 16.5628L17.6104 17.5628C17.6704 17.5828 17.7304 17.5928 17.7904 17.5928C17.9604 17.5928 18.1304 17.5028 18.2204 17.3428L20.2204 13.8828C20.3404 13.6628 20.2904 13.3928 20.1004 13.2428L17.9904 11.5928ZM16.0104 9.88279C16.0504 10.1928 16.0604 10.4028 16.0604 10.6128C16.0604 10.8228 16.0404 11.0428 16.0104 11.3428L15.8704 12.4728L16.7604 13.1728L17.8404 14.0128L17.1404 15.2228L15.8704 14.7128L14.8304 14.2928L13.9304 14.9728C13.5004 15.2928 13.0904 15.5328 12.6804 15.7028L11.6204 16.1328L11.4604 17.2628L11.2604 18.6128H9.86039L9.67039 17.2628L9.51039 16.1328L8.45039 15.7028C8.02039 15.5228 7.62039 15.2928 7.22039 14.9928L6.31039 14.2928L5.25039 14.7228L3.98039 15.2328L3.28039 14.0228L4.36039 13.1828L5.25039 12.4828L5.11039 11.3528C5.08039 11.0428 5.06039 10.8128 5.06039 10.6128C5.06039 10.4128 5.08039 10.1828 5.11039 9.88279L5.25039 8.75279L4.36039 8.05279L3.28039 7.21279L3.98039 6.00279L5.25039 6.51279L6.29039 6.93279L7.19039 6.25279C7.62039 5.93279 8.03039 5.69279 8.44039 5.52279L9.50039 5.09279L9.66039 3.96279L9.86039 2.61279H11.2504L11.4404 3.96279L11.6004 5.09279L12.6604 5.52279C13.0904 5.70279 13.4904 5.93279 13.8904 6.23279L14.8004 6.93279L15.8604 6.50279L17.1304 5.99279L17.8304 7.20279L16.7604 8.05279L15.8704 8.75279L16.0104 9.88279ZM10.5604 6.61279C8.35039 6.61279 6.56039 8.40279 6.56039 10.6128C6.56039 12.8228 8.35039 14.6128 10.5604 14.6128C12.7704 14.6128 14.5604 12.8228 14.5604 10.6128C14.5604 8.40279 12.7704 6.61279 10.5604 6.61279ZM10.5604 12.6128C9.46039 12.6128 8.56039 11.7128 8.56039 10.6128C8.56039 9.51279 9.46039 8.61279 10.5604 8.61279C11.6604 8.61279 12.5604 9.51279 12.5604 10.6128C12.5604 11.7128 11.6604 12.6128 10.5604 12.6128Z" fill="#07A098"/>
</svg>
