<svg data-v-423bf9ae="" xmlns="http://www.w3.org/2000/svg" viewBox="0 0 146.9875647724963 60" class="font"><!----><!----><!----><g data-v-423bf9ae="" id="37f16ff7-fe51-49d6-83e6-157fc870a4b0" fill="white" transform="matrix(4.977489784860018,0,0,4.977489784860018,0.04977478675459679,-17.78820642520897)"><path d="M1.11 5.29L1.11 5.29L1.11 7.05L-0.01 8.11L1.23 8.11L1.24 12.76L2.48 12.23L2.49 8.09L3.22 8.09L5.03 6.99L2.45 6.99L2.45 5.22L2.45 5.22Q2.41 4.33 2.84 4.42L2.84 4.42L2.84 4.42Q3.27 4.51 3.47 5.26L3.47 5.26L4.55 4.40L4.55 4.40Q4.72 3.68 3.41 3.58L3.41 3.58L3.41 3.58Q2.11 3.47 1.11 5.29ZM8.52 12.70L9.79 12.19L9.79 6.49L8.46 7.03L8.46 11.16L8.46 11.16Q7.96 11.79 7.10 11.74L7.10 11.74L7.10 11.74Q6.23 11.69 6.15 10.73L6.15 10.73L6.16 6.51L4.86 7.17L4.86 10.96L4.86 10.96Q4.86 11.91 5.52 12.35L5.52 12.35L5.52 12.35Q6.19 12.80 6.81 12.68L6.81 12.68L6.81 12.68Q7.44 12.56 8.52 11.48L8.52 11.48L8.52 12.70ZM14.01 6.51L14.01 6.51L14.01 6.51Q12.93 6.35 11.99 7.19L11.99 7.19L11.99 7.19Q11.05 8.03 10.78 9.15L10.78 9.15L10.78 9.15Q10.52 10.27 10.87 11.09L10.87 11.09L10.87 11.09Q11.22 11.91 11.80 12.28L11.80 12.28L11.80 12.28Q12.38 12.66 13.17 12.71L13.17 12.71L13.17 12.71Q13.97 12.76 14.73 12.08L14.73 12.08L14.73 12.08Q15.50 11.41 15.96 10.54L15.96 10.54L15.87 10.47L15.87 10.47Q14.81 11.57 13.74 11.52L13.74 11.52L13.74 11.52Q12.66 11.47 12.32 10.85L12.32 10.85L14.26 9.78L14.26 9.78Q15.71 8.81 15.40 7.75L15.40 7.75L15.40 7.75Q15.09 6.68 14.01 6.51ZM11.79 8.16L11.79 8.16L11.79 8.16Q12.03 7.66 12.64 7.40L12.64 7.40L12.64 7.40Q13.25 7.14 13.80 7.68L13.80 7.68L13.80 7.68Q14.35 8.21 14.18 8.90L14.18 8.90L14.18 8.90Q14.01 9.60 12.11 10.57L12.11 10.57L12.11 10.57Q11.80 10.04 11.68 9.35L11.68 9.35L11.68 9.35Q11.55 8.67 11.79 8.16ZM19.31 7.38L19.31 7.38L19.31 7.38Q20.23 7.58 20.86 8.36L20.86 8.36L20.86 8.36Q21.49 9.13 21.43 9.87L21.43 9.87L21.43 9.87Q21.36 10.62 20.91 10.98L20.91 10.98L20.91 10.98Q20.46 11.33 19.49 11.06L19.49 11.06L19.49 11.06Q18.52 10.79 18.01 9.78L18.01 9.78L18.01 9.78Q17.50 8.76 17.95 7.97L17.95 7.97L17.95 7.97Q18.40 7.18 19.31 7.38ZM22.00 4.12L21.10 5.26L21.10 5.26Q21.96 5.69 21.29 6.91L21.29 6.91L21.29 6.91Q20.35 6.26 19.35 6.50L19.35 6.50L19.35 6.50Q18.35 6.73 17.72 7.33L17.72 7.33L17.72 7.33Q17.08 7.94 16.85 8.70L16.85 8.70L16.85 8.70Q16.63 9.45 16.81 10.18L16.81 10.18L16.81 10.18Q16.99 10.90 17.67 11.57L17.67 11.57L17.67 11.57Q18.35 12.24 19.71 12.29L19.71 12.29L19.71 12.29Q20.11 12.37 20.87 12.64L20.87 12.64L20.87 12.64Q21.63 12.91 21.85 13.49L21.85 13.49L21.85 13.49Q22.07 14.08 21.46 14.44L21.46 14.44L21.46 14.44Q20.85 14.81 19.49 14.55L19.49 14.55L19.49 14.55Q18.12 14.29 17.62 13.45L17.62 13.45L17.62 13.45Q17.11 12.61 17.61 12.00L17.61 12.00L17.53 11.94L17.53 11.94Q16.17 12.96 16.42 13.97L16.42 13.97L16.42 13.97Q16.66 14.98 17.80 15.34L17.80 15.34L17.80 15.34Q18.94 15.70 19.78 15.61L19.78 15.61L19.78 15.61Q20.63 15.51 21.20 15.19L21.20 15.19L21.20 15.19Q21.77 14.86 22.23 14.33L22.23 14.33L22.23 14.33Q22.70 13.79 22.78 13.13L22.78 13.13L22.78 13.13Q22.85 12.47 22.37 12.08L22.37 12.08L22.37 12.08Q21.90 11.69 21.07 11.55L21.07 11.55L21.07 11.55Q21.88 10.92 22.24 10.22L22.24 10.22L22.24 10.22Q22.60 9.53 22.40 8.59L22.40 8.59L22.40 8.59Q22.20 7.64 21.53 7.07L21.53 7.07L21.53 7.07Q22.85 5.75 22.69 4.99L22.69 4.99L22.69 4.99Q22.52 4.24 22.00 4.12L22.00 4.12ZM26.74 6.48L26.74 6.48L26.74 6.48Q25.62 6.51 24.91 7.03L24.91 7.03L24.91 7.03Q24.21 7.55 23.88 8.19L23.88 8.19L23.88 8.19Q23.56 8.84 23.54 9.76L23.54 9.76L23.54 9.76Q23.52 10.68 24.21 11.62L24.21 11.62L24.21 11.62Q24.90 12.56 25.90 12.71L25.90 12.71L25.90 12.71Q26.91 12.85 27.77 12.33L27.77 12.33L27.77 12.33Q28.63 11.80 29.07 11.12L29.07 11.12L29.07 11.12Q29.50 10.45 29.52 9.35L29.52 9.35L29.52 9.35Q29.54 8.26 28.69 7.36L28.69 7.36L28.69 7.36Q27.85 6.46 26.74 6.48ZM26.44 7.44L26.44 7.44L26.44 7.44Q27.48 7.82 27.91 8.91L27.91 8.91L27.91 8.91Q28.33 9.99 28.28 10.67L28.28 10.67L28.28 10.67Q28.23 11.34 27.65 11.71L27.65 11.71L27.65 11.71Q27.08 12.08 26.14 11.56L26.14 11.56L26.14 11.56Q25.19 11.05 24.89 9.91L24.89 9.91L24.89 9.91Q24.58 8.77 24.99 7.92L24.99 7.92L24.99 7.92Q25.40 7.07 26.44 7.44Z"></path></g><!----><!----></svg>