<svg width="174" height="174" viewBox="0 0 174 174" fill="none" xmlns="http://www.w3.org/2000/svg">
<path fill-rule="evenodd" clip-rule="evenodd" d="M87.3109 27.8309V0.922562C63.4869 0.922562 41.9183 10.7774 26.3057 26.4338L45.3396 45.4678C56.1038 34.7034 70.9239 27.9948 87.3109 27.8309Z" fill="#0EB4F6"/>
<path fill-rule="evenodd" clip-rule="evenodd" d="M27.5896 87.4388H0.793884C0.793884 63.6148 10.6488 42.0462 26.3051 26.4336L45.2856 45.4141C34.5039 56.1951 27.7771 71.0314 27.5896 87.4388Z" fill="#0EB4F6"/>
<path fill-rule="evenodd" clip-rule="evenodd" d="M27.7054 87.4386C27.7023 87.6916 27.7007 87.9449 27.7007 88.1986C27.7007 104.483 34.1481 119.261 44.6294 130.12L26.3053 148.444C10.6489 132.831 0.794006 111.263 0.794006 87.4386H27.7054Z" fill="#0EB4F6"/>
<path fill-rule="evenodd" clip-rule="evenodd" d="M87.3109 148.877V173.955C63.4869 173.955 41.9183 164.101 26.3057 148.444L44.5369 130.213C55.3559 141.503 70.5023 148.613 87.3109 148.877Z" fill="#0EB4F6"/>
<path fill-rule="evenodd" clip-rule="evenodd" d="M87.3117 148.386V173.955C111.136 173.955 132.704 164.101 148.317 148.444L130.616 130.744C119.7 141.647 104.626 148.39 87.9782 148.39C87.7557 148.39 87.5336 148.389 87.3117 148.386Z" fill="#0EB4F6"/>
<path fill-rule="evenodd" clip-rule="evenodd" d="M148.309 87.4386C148.312 87.6789 148.313 87.9194 148.313 88.1603C148.313 104.807 141.566 119.877 130.658 130.786L148.315 148.444C163.972 132.831 173.827 111.263 173.827 87.4386H148.309Z" fill="#0EB4F6"/>
<path fill-rule="evenodd" clip-rule="evenodd" d="M148.437 87.4388H173.826C173.826 63.6148 163.972 42.0462 148.315 26.4336L130.101 44.6477C141.277 55.5137 148.271 70.6591 148.437 87.4388Z" fill="#0EB4F6"/>
<path fill-rule="evenodd" clip-rule="evenodd" d="M87.3117 27.7198V0.92271C111.136 0.92271 132.704 10.7776 148.317 26.434L129.959 44.7915C119.072 34.2237 104.22 27.7175 87.8482 27.7175C87.6692 27.7175 87.4903 27.7182 87.3117 27.7198Z" fill="#07A098"/>
<path d="M54.9286 96.0845H57.6838V74.4321H52.0536V76.9177H54.9286V96.0845ZM61.7362 95.8449H76.1412V93.5688H65.8391C69.7024 90.4243 75.5123 85.8423 75.5123 80.4516C75.5123 76.4386 72.8768 74.0427 68.8039 74.0427C64.9107 74.0427 62.0057 76.4386 61.826 81.0506H64.4615C64.5812 78.3253 66.0188 76.3787 68.8339 76.3787C71.7688 76.3787 72.817 78.1756 72.817 80.5714C72.817 85.0037 67.4263 89.3162 61.7362 93.8983V95.8449ZM77.0754 100.367H78.9022L82.2564 92.311H79.2616L77.0754 100.367ZM85.4082 74.4021V86.6209H87.9837C88.7025 84.9139 90.2897 83.7758 92.4759 83.7758C95.6205 83.7758 97.2077 85.5727 97.2077 88.6574C97.2077 91.6222 95.7403 93.8384 92.446 93.8384C89.9004 93.8384 88.1335 92.4907 87.6244 90.2147H84.959C85.4981 93.7186 88.1035 96.1444 92.4161 96.1444C97.4773 96.1444 99.8132 92.7902 99.8132 88.5975C99.8132 85.2433 98.1361 81.4399 92.8653 81.4399C90.739 81.4399 88.8223 82.3982 87.9238 83.6261V76.798H98.4356V74.4021H85.4082ZM102.536 79.3136C102.536 82.1287 104.423 83.8058 106.909 83.8058C109.424 83.8058 111.281 82.1287 111.281 79.3136C111.281 76.5284 109.424 74.8513 106.909 74.8513C104.423 74.8513 102.536 76.5284 102.536 79.3136ZM106.909 76.5284C108.226 76.5284 109.125 77.4269 109.125 79.3136C109.125 81.1704 108.226 82.1287 106.909 82.1287C105.591 82.1287 104.723 81.1704 104.723 79.3136C104.723 77.4269 105.591 76.5284 106.909 76.5284ZM105.202 96.0845H107.897L120.026 75.1808H117.331L105.202 96.0845ZM114.006 91.9516C114.006 94.7368 115.863 96.4438 118.379 96.4438C120.865 96.4438 122.721 94.7368 122.721 91.9516C122.721 89.1365 120.865 87.4594 118.379 87.4594C115.863 87.4594 114.006 89.1365 114.006 91.9516ZM118.349 89.1665C119.667 89.1665 120.565 90.0649 120.565 91.9516C120.565 93.8084 119.667 94.7069 118.349 94.7069C117.031 94.7069 116.133 93.8084 116.133 91.9516C116.133 90.0649 117.031 89.1665 118.349 89.1665Z" fill="#686868"/>
<path d="M71.0156 115.926H72.3467L69.5848 108.206H68.1207L65.3588 115.926H66.6787L67.2333 114.351H70.461L71.0156 115.926ZM70.1061 113.319H67.5883L68.8527 109.737L70.1061 113.319ZM74.7898 112.864C74.7898 114.783 76.0321 116.026 77.7846 116.026C79.282 116.026 80.2581 115.194 80.602 113.996H79.2377C79.0047 114.628 78.5389 114.961 77.7846 114.961C76.7642 114.961 76.0876 114.207 76.0876 112.864C76.0876 111.533 76.7642 110.779 77.7846 110.779C78.5389 110.779 79.0269 111.156 79.2377 111.744H80.602C80.2581 110.457 79.282 109.714 77.7846 109.714C76.0321 109.714 74.7898 110.957 74.7898 112.864ZM83.7255 114.229C83.7255 115.471 84.4021 115.926 85.4891 115.926H86.4874V114.872H85.711C85.1786 114.872 85.0011 114.683 85.0011 114.229V110.846H86.4874V109.814H85.0011V108.295H83.7255V109.814H83.0045V110.846H83.7255V114.229ZM89.3166 115.926H90.5811V109.814H89.3166V115.926ZM89.9599 109.004C90.4036 109.004 90.7585 108.65 90.7585 108.195C90.7585 107.74 90.4036 107.385 89.9599 107.385C89.5052 107.385 89.1502 107.74 89.1502 108.195C89.1502 108.65 89.5052 109.004 89.9599 109.004ZM93.184 109.814L95.5022 115.926H97.0107L99.34 109.814H97.9979L96.2676 114.794L94.5372 109.814H93.184ZM104.533 110.779C105.476 110.779 106.219 111.378 106.241 112.321H102.858C102.991 111.356 103.679 110.779 104.533 110.779ZM107.395 114.107H106.03C105.797 114.584 105.365 114.961 104.588 114.961C103.657 114.961 102.936 114.351 102.847 113.341H107.517C107.55 113.131 107.561 112.931 107.561 112.72C107.561 110.923 106.33 109.714 104.588 109.714C102.78 109.714 101.538 110.946 101.538 112.864C101.538 114.783 102.836 116.026 104.588 116.026C106.086 116.026 107.051 115.172 107.395 114.107Z" fill="#686868"/>
</svg>
