<svg width="53" height="53" viewBox="0 0 53 53" fill="none" xmlns="http://www.w3.org/2000/svg">
<path d="M26.7012 0.12207L51.4286 18.0876L41.9836 47.1565H11.4188L1.9737 18.0876L26.7012 0.12207Z" fill="#1984FF"/>
<path fill-rule="evenodd" clip-rule="evenodd" d="M20.4216 29.0095C21.203 28.2281 22.2628 27.7891 23.3678 27.7891H30.0345C31.1396 27.7891 32.1994 28.2281 32.9808 29.0095C33.7622 29.7909 34.2012 30.8507 34.2012 31.9557V33.6224C34.2012 34.0826 33.8281 34.4557 33.3678 34.4557C32.9076 34.4557 32.5345 34.0826 32.5345 33.6224V31.9557C32.5345 31.2927 32.2711 30.6568 31.8023 30.188C31.3334 29.7191 30.6975 29.4557 30.0345 29.4557H23.3678C22.7048 29.4557 22.0689 29.7191 21.6001 30.188C21.1312 30.6568 20.8678 31.2927 20.8678 31.9557V33.6224C20.8678 34.0826 20.4947 34.4557 20.0345 34.4557C19.5743 34.4557 19.2012 34.0826 19.2012 33.6224V31.9557C19.2012 30.8507 19.6402 29.7909 20.4216 29.0095Z" fill="white"/>
<path fill-rule="evenodd" clip-rule="evenodd" d="M26.7013 19.4557C25.3206 19.4557 24.2013 20.575 24.2013 21.9557C24.2013 23.3364 25.3206 24.4557 26.7013 24.4557C28.082 24.4557 29.2013 23.3364 29.2013 21.9557C29.2013 20.575 28.082 19.4557 26.7013 19.4557ZM22.5347 21.9557C22.5347 19.6545 24.4001 17.7891 26.7013 17.7891C29.0025 17.7891 30.868 19.6545 30.868 21.9557C30.868 24.2569 29.0025 26.1224 26.7013 26.1224C24.4001 26.1224 22.5347 24.2569 22.5347 21.9557Z" fill="white"/>
</svg>
