<svg width="18" height="13" viewBox="0 0 18 13" fill="none" xmlns="http://www.w3.org/2000/svg">
<path d="M6.54476 6.76888C8.15309 6.76888 9.46143 5.46055 9.46143 3.85221C9.46143 2.24388 8.15309 0.935547 6.54476 0.935547C4.93643 0.935547 3.62809 2.24388 3.62809 3.85221C3.62809 5.46055 4.93643 6.76888 6.54476 6.76888ZM6.54476 2.60221C7.23643 2.60221 7.79476 3.16055 7.79476 3.85221C7.79476 4.54388 7.23643 5.10221 6.54476 5.10221C5.85309 5.10221 5.29476 4.54388 5.29476 3.85221C5.29476 3.16055 5.85309 2.60221 6.54476 2.60221ZM6.54476 8.22721C4.59476 8.22721 0.711426 9.20222 0.711426 11.1439V12.6022H12.3781V11.1439C12.3781 9.20222 8.49476 8.22721 6.54476 8.22721ZM2.66143 10.9355C3.36143 10.4522 5.05309 9.89388 6.54476 9.89388C8.03643 9.89388 9.72809 10.4522 10.4281 10.9355H2.66143ZM12.4114 8.27722C13.3781 8.97722 14.0448 9.91055 14.0448 11.1439V12.6022H17.3781V11.1439C17.3781 9.46055 14.4614 8.50222 12.4114 8.27722ZM11.5448 6.76888C13.1531 6.76888 14.4614 5.46055 14.4614 3.85221C14.4614 2.24388 13.1531 0.935547 11.5448 0.935547C11.0948 0.935547 10.6781 1.04388 10.2948 1.22721C10.8198 1.96888 11.1281 2.87721 11.1281 3.85221C11.1281 4.82721 10.8198 5.73555 10.2948 6.47721C10.6781 6.66055 11.0948 6.76888 11.5448 6.76888Z" fill="#001E2F" fill-opacity="0.4"/>
</svg>
