<svg width="53" height="53" viewBox="0 0 53 53" fill="none" xmlns="http://www.w3.org/2000/svg">
<path d="M26.3477 0.898438L51.0751 18.864L41.6301 47.9329H11.0652L1.62019 18.864L26.3477 0.898438Z" fill="#07A098"/>
<path fill-rule="evenodd" clip-rule="evenodd" d="M20.068 29.7868C20.8494 29.0054 21.9093 28.5664 23.0143 28.5664H29.681C30.7861 28.5664 31.8459 29.0054 32.6273 29.7868C33.4087 30.5682 33.8477 31.628 33.8477 32.7331V34.3997C33.8477 34.86 33.4746 35.2331 33.0143 35.2331C32.5541 35.2331 32.181 34.86 32.181 34.3997V32.7331C32.181 32.07 31.9176 31.4341 31.4488 30.9653C30.9799 30.4965 30.344 30.2331 29.681 30.2331H23.0143C22.3513 30.2331 21.7154 30.4965 21.2466 30.9653C20.7777 31.4341 20.5143 32.07 20.5143 32.7331V34.3997C20.5143 34.86 20.1412 35.2331 19.681 35.2331C19.2208 35.2331 18.8477 34.86 18.8477 34.3997V32.7331C18.8477 31.628 19.2866 30.5682 20.068 29.7868Z" fill="white"/>
<path fill-rule="evenodd" clip-rule="evenodd" d="M26.3477 20.2331C24.9669 20.2331 23.8477 21.3524 23.8477 22.7331C23.8477 24.1138 24.9669 25.2331 26.3477 25.2331C27.7284 25.2331 28.8477 24.1138 28.8477 22.7331C28.8477 21.3524 27.7284 20.2331 26.3477 20.2331ZM22.181 22.7331C22.181 20.4319 24.0465 18.5664 26.3477 18.5664C28.6488 18.5664 30.5143 20.4319 30.5143 22.7331C30.5143 25.0343 28.6488 26.8997 26.3477 26.8997C24.0465 26.8997 22.181 25.0343 22.181 22.7331Z" fill="white"/>
</svg>
