<svg width="53" height="53" viewBox="0 0 53 53" fill="none" xmlns="http://www.w3.org/2000/svg">
<path d="M26.7012 0.956055L51.4286 18.9216L41.9836 47.9905H11.4188L1.9737 18.9216L26.7012 0.956055Z" fill="#E42AB1"/>
<path fill-rule="evenodd" clip-rule="evenodd" d="M20.4216 29.8434C21.203 29.062 22.2628 28.623 23.3678 28.623H30.0345C31.1396 28.623 32.1994 29.062 32.9808 29.8434C33.7622 30.6248 34.2012 31.6846 34.2012 32.7897V34.4564C34.2012 34.9166 33.8281 35.2897 33.3678 35.2897C32.9076 35.2897 32.5345 34.9166 32.5345 34.4564V32.7897C32.5345 32.1267 32.2711 31.4908 31.8023 31.0219C31.3334 30.5531 30.6975 30.2897 30.0345 30.2897H23.3678C22.7048 30.2897 22.0689 30.5531 21.6001 31.0219C21.1312 31.4908 20.8678 32.1267 20.8678 32.7897V34.4564C20.8678 34.9166 20.4947 35.2897 20.0345 35.2897C19.5743 35.2897 19.2012 34.9166 19.2012 34.4564V32.7897C19.2012 31.6846 19.6402 30.6248 20.4216 29.8434Z" fill="white"/>
<path fill-rule="evenodd" clip-rule="evenodd" d="M26.7013 20.2897C25.3206 20.2897 24.2013 21.409 24.2013 22.7897C24.2013 24.1704 25.3206 25.2897 26.7013 25.2897C28.082 25.2897 29.2013 24.1704 29.2013 22.7897C29.2013 21.409 28.082 20.2897 26.7013 20.2897ZM22.5347 22.7897C22.5347 20.4885 24.4001 18.623 26.7013 18.623C29.0025 18.623 30.868 20.4885 30.868 22.7897C30.868 25.0909 29.0025 26.9564 26.7013 26.9564C24.4001 26.9564 22.5347 25.0909 22.5347 22.7897Z" fill="white"/>
</svg>
