<svg width="53" height="53" viewBox="0 0 53 53" fill="none" xmlns="http://www.w3.org/2000/svg">
<path d="M26.3477 0.0664062L51.0751 18.032L41.6301 47.1008H11.0652L1.62019 18.032L26.3477 0.0664062Z" fill="#0EB4F6"/>
<path fill-rule="evenodd" clip-rule="evenodd" d="M20.068 28.9548C20.8494 28.1734 21.9093 27.7344 23.0143 27.7344H29.681C30.7861 27.7344 31.8459 28.1734 32.6273 28.9548C33.4087 29.7362 33.8477 30.796 33.8477 31.901V33.5677C33.8477 34.0279 33.4746 34.401 33.0143 34.401C32.5541 34.401 32.181 34.0279 32.181 33.5677V31.901C32.181 31.238 31.9176 30.6021 31.4488 30.1333C30.9799 29.6644 30.344 29.401 29.681 29.401H23.0143C22.3513 29.401 21.7154 29.6644 21.2466 30.1333C20.7777 30.6021 20.5143 31.238 20.5143 31.901V33.5677C20.5143 34.0279 20.1412 34.401 19.681 34.401C19.2208 34.401 18.8477 34.0279 18.8477 33.5677V31.901C18.8477 30.796 19.2866 29.7362 20.068 28.9548Z" fill="white"/>
<path fill-rule="evenodd" clip-rule="evenodd" d="M26.3477 19.401C24.9669 19.401 23.8477 20.5203 23.8477 21.901C23.8477 23.2818 24.9669 24.401 26.3477 24.401C27.7284 24.401 28.8477 23.2818 28.8477 21.901C28.8477 20.5203 27.7284 19.401 26.3477 19.401ZM22.181 21.901C22.181 19.5999 24.0465 17.7344 26.3477 17.7344C28.6488 17.7344 30.5143 19.5999 30.5143 21.901C30.5143 24.2022 28.6488 26.0677 26.3477 26.0677C24.0465 26.0677 22.181 24.2022 22.181 21.901Z" fill="white"/>
</svg>
