<svg width="53" height="53" viewBox="0 0 53 53" fill="none" xmlns="http://www.w3.org/2000/svg">
<path d="M26.0352 0.335938L50.7626 18.3015L41.3176 47.3704H10.7527L1.30769 18.3015L26.0352 0.335938Z" fill="white"/>
<path fill-rule="evenodd" clip-rule="evenodd" d="M18.4996 31.8981C19.4373 30.9604 20.7091 30.4336 22.0352 30.4336H30.0352C31.3612 30.4336 32.633 30.9604 33.5707 31.8981C34.5084 32.8357 35.0352 34.1075 35.0352 35.4336V37.4336C35.0352 37.9859 34.5874 38.4336 34.0352 38.4336C33.4829 38.4336 33.0352 37.9859 33.0352 37.4336V35.4336C33.0352 34.6379 32.7191 33.8749 32.1565 33.3123C31.5939 32.7497 30.8308 32.4336 30.0352 32.4336H22.0352C21.2395 32.4336 20.4764 32.7497 19.9138 33.3123C19.3512 33.8749 19.0352 34.6379 19.0352 35.4336V37.4336C19.0352 37.9859 18.5874 38.4336 18.0352 38.4336C17.4829 38.4336 17.0352 37.9859 17.0352 37.4336V35.4336C17.0352 34.1075 17.5619 32.8357 18.4996 31.8981Z" fill="#07A098"/>
<path fill-rule="evenodd" clip-rule="evenodd" d="M26.0352 20.4336C24.3783 20.4336 23.0352 21.7767 23.0352 23.4336C23.0352 25.0904 24.3783 26.4336 26.0352 26.4336C27.692 26.4336 29.0352 25.0904 29.0352 23.4336C29.0352 21.7767 27.692 20.4336 26.0352 20.4336ZM21.0352 23.4336C21.0352 20.6722 23.2737 18.4336 26.0352 18.4336C28.7966 18.4336 31.0352 20.6722 31.0352 23.4336C31.0352 26.195 28.7966 28.4336 26.0352 28.4336C23.2737 28.4336 21.0352 26.195 21.0352 23.4336Z" fill="#07A098"/>
</svg>
